<svg xmlns="http://www.w3.org/2000/svg" xmlns:xlink="http://www.w3.org/1999/xlink" width="500" zoomAndPan="magnify" viewBox="0 0 375 374.999991" height="500" preserveAspectRatio="xMidYMid meet" version="1.0"><defs><g/></defs><rect x="-37.5" width="450" fill="#ffffff" y="-37.499999" height="449.999989" fill-opacity="1"/><rect x="-37.5" width="450" fill="#ffffff" y="-37.499999" height="449.999989" fill-opacity="1"/><rect x="-37.5" width="450" fill="#ffffff" y="-37.499999" height="449.999989" fill-opacity="1"/><g fill="#8c52ff" fill-opacity="1"><g transform="translate(47.765626, 163.27162)"><g><path d="M 25.46875 -20.484375 L 25.46875 -32.84375 L 31.9375 -32.84375 L 31.9375 0 L 25.46875 0 L 25.46875 -14.953125 L 10.765625 -14.953125 L 10.765625 0 L 4.265625 0 L 4.265625 -32.84375 L 10.765625 -32.84375 L 10.765625 -20.484375 Z M 25.46875 -20.484375 "/></g></g></g><g fill="#8c52ff" fill-opacity="1"><g transform="translate(83.992045, 163.27162)"><g><path d="M 14.390625 0.46875 C 11.972656 0.46875 9.84375 -0.0234375 8 -1.015625 C 6.164062 -2.015625 4.742188 -3.472656 3.734375 -5.390625 C 2.722656 -7.316406 2.21875 -9.644531 2.21875 -12.375 C 2.21875 -15.101562 2.722656 -17.429688 3.734375 -19.359375 C 4.742188 -21.296875 6.164062 -22.757812 8 -23.75 C 9.84375 -24.75 11.972656 -25.25 14.390625 -25.25 C 16.816406 -25.25 18.945312 -24.75 20.78125 -23.75 C 22.625 -22.757812 24.050781 -21.296875 25.0625 -19.359375 C 26.082031 -17.429688 26.59375 -15.101562 26.59375 -12.375 C 26.59375 -9.644531 26.082031 -7.316406 25.0625 -5.390625 C 24.050781 -3.472656 22.625 -2.015625 20.78125 -1.015625 C 18.945312 -0.0234375 16.816406 0.46875 14.390625 0.46875 Z M 14.390625 -4.8125 C 18.242188 -4.8125 20.171875 -7.332031 20.171875 -12.375 C 20.171875 -15 19.675781 -16.921875 18.6875 -18.140625 C 17.695312 -19.359375 16.265625 -19.96875 14.390625 -19.96875 C 10.546875 -19.96875 8.625 -17.4375 8.625 -12.375 C 8.625 -7.332031 10.546875 -4.8125 14.390625 -4.8125 Z M 14.390625 -4.8125 "/></g></g></g><g fill="#8c52ff" fill-opacity="1"><g transform="translate(112.78452, 163.27162)"><g><path d="M 13.296875 0 L 6.78125 0 L 0.90625 -24.78125 L 6.671875 -24.78125 L 10.3125 -8.015625 L 10.78125 -8.015625 L 15.5 -24.78125 L 20.890625 -24.78125 L 25.765625 -8.015625 L 26.234375 -8.015625 L 29.734375 -24.78125 L 35.359375 -24.78125 L 29.53125 0 L 23 0 L 18.3125 -16.875 L 17.828125 -16.875 Z M 13.296875 0 "/></g></g></g><g fill="#8c52ff" fill-opacity="1"><g transform="translate(149.010939, 163.27162)"><g/></g></g><g fill="#8c52ff" fill-opacity="1"><g transform="translate(159.858656, 163.27162)"><g><path d="M 9.65625 0.46875 C 8.070312 0.46875 6.695312 0.175781 5.53125 -0.40625 C 4.363281 -0.988281 3.460938 -1.84375 2.828125 -2.96875 C 2.203125 -4.101562 1.890625 -5.460938 1.890625 -7.046875 C 1.890625 -8.515625 2.203125 -9.742188 2.828125 -10.734375 C 3.460938 -11.734375 4.4375 -12.550781 5.75 -13.1875 C 7.070312 -13.832031 8.796875 -14.328125 10.921875 -14.671875 C 12.398438 -14.910156 13.523438 -15.171875 14.296875 -15.453125 C 15.066406 -15.734375 15.585938 -16.050781 15.859375 -16.40625 C 16.128906 -16.769531 16.265625 -17.234375 16.265625 -17.796875 C 16.265625 -18.585938 15.984375 -19.191406 15.421875 -19.609375 C 14.867188 -20.023438 13.953125 -20.234375 12.671875 -20.234375 C 11.296875 -20.234375 9.984375 -19.925781 8.734375 -19.3125 C 7.492188 -18.695312 6.414062 -17.890625 5.5 -16.890625 L 5.046875 -16.890625 L 2.453125 -20.828125 C 3.703125 -22.210938 5.234375 -23.296875 7.046875 -24.078125 C 8.859375 -24.859375 10.835938 -25.25 12.984375 -25.25 C 16.265625 -25.25 18.632812 -24.550781 20.09375 -23.15625 C 21.5625 -21.757812 22.296875 -19.785156 22.296875 -17.234375 L 22.296875 -6.46875 C 22.296875 -5.363281 22.785156 -4.8125 23.765625 -4.8125 C 24.140625 -4.8125 24.503906 -4.878906 24.859375 -5.015625 L 25.171875 -4.921875 L 25.625 -0.578125 C 25.28125 -0.359375 24.800781 -0.175781 24.1875 -0.03125 C 23.570312 0.113281 22.898438 0.1875 22.171875 0.1875 C 20.691406 0.1875 19.535156 -0.0976562 18.703125 -0.671875 C 17.867188 -1.242188 17.269531 -2.132812 16.90625 -3.34375 L 16.4375 -3.390625 C 15.226562 -0.816406 12.96875 0.46875 9.65625 0.46875 Z M 11.640625 -4.171875 C 13.078125 -4.171875 14.222656 -4.65625 15.078125 -5.625 C 15.941406 -6.59375 16.375 -7.9375 16.375 -9.65625 L 16.375 -12.171875 L 15.953125 -12.265625 C 15.578125 -11.960938 15.082031 -11.707031 14.46875 -11.5 C 13.863281 -11.300781 12.992188 -11.109375 11.859375 -10.921875 C 10.515625 -10.691406 9.546875 -10.300781 8.953125 -9.75 C 8.359375 -9.207031 8.0625 -8.4375 8.0625 -7.4375 C 8.0625 -6.375 8.375 -5.5625 9 -5 C 9.632812 -4.445312 10.515625 -4.171875 11.640625 -4.171875 Z M 11.640625 -4.171875 "/></g></g></g><g fill="#8c52ff" fill-opacity="1"><g transform="translate(185.978512, 163.27162)"><g><path d="M 3.578125 0 L 3.578125 -24.78125 L 9.609375 -24.78125 L 9.609375 -21.09375 L 10.078125 -21 C 10.679688 -22.375 11.46875 -23.382812 12.4375 -24.03125 C 13.414062 -24.675781 14.601562 -25 16 -25 C 17.40625 -25 18.472656 -24.757812 19.203125 -24.28125 L 18.15625 -18.90625 L 17.671875 -18.828125 C 17.273438 -18.984375 16.890625 -19.097656 16.515625 -19.171875 C 16.140625 -19.253906 15.679688 -19.296875 15.140625 -19.296875 C 13.398438 -19.296875 12.070312 -18.6875 11.15625 -17.46875 C 10.25 -16.25 9.796875 -14.289062 9.796875 -11.59375 L 9.796875 0 Z M 3.578125 0 "/></g></g></g><g fill="#8c52ff" fill-opacity="1"><g transform="translate(205.405577, 163.27162)"><g><path d="M 24.484375 -10.984375 L 8.5625 -10.984375 C 8.738281 -8.828125 9.347656 -7.257812 10.390625 -6.28125 C 11.441406 -5.300781 12.875 -4.8125 14.6875 -4.8125 C 16.113281 -4.8125 17.265625 -5.078125 18.140625 -5.609375 C 19.023438 -6.140625 19.738281 -6.941406 20.28125 -8.015625 L 20.75 -8.015625 L 24.890625 -5.375 C 24.078125 -3.632812 22.851562 -2.222656 21.21875 -1.140625 C 19.59375 -0.0664062 17.414062 0.46875 14.6875 0.46875 C 12.125 0.46875 9.910156 -0.015625 8.046875 -0.984375 C 6.179688 -1.960938 4.742188 -3.410156 3.734375 -5.328125 C 2.722656 -7.253906 2.21875 -9.601562 2.21875 -12.375 C 2.21875 -15.1875 2.75 -17.554688 3.8125 -19.484375 C 4.875 -21.421875 6.3125 -22.863281 8.125 -23.8125 C 9.9375 -24.769531 11.972656 -25.25 14.234375 -25.25 C 17.742188 -25.25 20.429688 -24.316406 22.296875 -22.453125 C 24.160156 -20.597656 25.09375 -17.875 25.09375 -14.28125 C 25.09375 -12.976562 25.046875 -11.96875 24.953125 -11.25 Z M 19.140625 -15 C 19.078125 -16.882812 18.632812 -18.257812 17.8125 -19.125 C 17 -19.988281 15.804688 -20.421875 14.234375 -20.421875 C 11.097656 -20.421875 9.25 -18.613281 8.6875 -15 Z M 19.140625 -15 "/></g></g></g><g fill="#8c52ff" fill-opacity="1"><g transform="translate(232.333958, 163.27162)"><g/></g></g><g fill="#8c52ff" fill-opacity="1"><g transform="translate(243.181675, 163.27162)"><g><path d="M 5.484375 10.515625 C 4.421875 10.515625 3.457031 10.429688 2.59375 10.265625 C 1.726562 10.097656 1.03125 9.878906 0.5 9.609375 L 1.484375 4.578125 L 1.890625 4.453125 C 2.265625 4.640625 2.726562 4.789062 3.28125 4.90625 C 3.832031 5.03125 4.398438 5.09375 4.984375 5.09375 C 5.984375 5.09375 6.816406 4.960938 7.484375 4.703125 C 8.148438 4.441406 8.71875 4.007812 9.1875 3.40625 C 9.65625 2.800781 10.066406 1.957031 10.421875 0.875 L 0.546875 -24.78125 L 7.046875 -24.78125 L 13.203125 -7.546875 L 13.75 -7.546875 L 19.75 -24.78125 L 26.078125 -24.78125 L 16.125 1.546875 C 15.332031 3.671875 14.457031 5.378906 13.5 6.671875 C 12.550781 7.972656 11.429688 8.9375 10.140625 9.5625 C 8.847656 10.195312 7.296875 10.515625 5.484375 10.515625 Z M 5.484375 10.515625 "/></g></g></g><g fill="#8c52ff" fill-opacity="1"><g transform="translate(269.773164, 163.27162)"><g><path d="M 14.390625 0.46875 C 11.972656 0.46875 9.84375 -0.0234375 8 -1.015625 C 6.164062 -2.015625 4.742188 -3.472656 3.734375 -5.390625 C 2.722656 -7.316406 2.21875 -9.644531 2.21875 -12.375 C 2.21875 -15.101562 2.722656 -17.429688 3.734375 -19.359375 C 4.742188 -21.296875 6.164062 -22.757812 8 -23.75 C 9.84375 -24.75 11.972656 -25.25 14.390625 -25.25 C 16.816406 -25.25 18.945312 -24.75 20.78125 -23.75 C 22.625 -22.757812 24.050781 -21.296875 25.0625 -19.359375 C 26.082031 -17.429688 26.59375 -15.101562 26.59375 -12.375 C 26.59375 -9.644531 26.082031 -7.316406 25.0625 -5.390625 C 24.050781 -3.472656 22.625 -2.015625 20.78125 -1.015625 C 18.945312 -0.0234375 16.816406 0.46875 14.390625 0.46875 Z M 14.390625 -4.8125 C 18.242188 -4.8125 20.171875 -7.332031 20.171875 -12.375 C 20.171875 -15 19.675781 -16.921875 18.6875 -18.140625 C 17.695312 -19.359375 16.265625 -19.96875 14.390625 -19.96875 C 10.546875 -19.96875 8.625 -17.4375 8.625 -12.375 C 8.625 -7.332031 10.546875 -4.8125 14.390625 -4.8125 Z M 14.390625 -4.8125 "/></g></g></g><g fill="#8c52ff" fill-opacity="1"><g transform="translate(298.565628, 163.27162)"><g><path d="M 11.34375 0.46875 C 8.5625 0.46875 6.503906 -0.289062 5.171875 -1.8125 C 3.847656 -3.332031 3.1875 -5.515625 3.1875 -8.359375 L 3.1875 -24.78125 L 9.40625 -24.78125 L 9.40625 -9.140625 C 9.40625 -7.628906 9.726562 -6.523438 10.375 -5.828125 C 11.03125 -5.128906 12.039062 -4.78125 13.40625 -4.78125 C 15.132812 -4.78125 16.476562 -5.34375 17.4375 -6.46875 C 18.394531 -7.601562 18.875 -9.382812 18.875 -11.8125 L 18.875 -24.78125 L 25.09375 -24.78125 L 25.09375 0 L 19.109375 0 L 19.109375 -3.640625 L 18.640625 -3.75 C 17.847656 -2.332031 16.878906 -1.273438 15.734375 -0.578125 C 14.585938 0.117188 13.125 0.46875 11.34375 0.46875 Z M 11.34375 0.46875 "/></g></g></g><g fill="#8c52ff" fill-opacity="1"><g transform="translate(28.183596, 227.021615)"><g><path d="M 4.328125 0 L 4.328125 -19.859375 L 0.828125 -19.859375 L 0.828125 -24.796875 L 4.328125 -24.796875 C 4.078125 -25.847656 3.953125 -26.828125 3.953125 -27.734375 C 3.953125 -29.304688 4.3125 -30.648438 5.03125 -31.765625 C 5.75 -32.878906 6.78125 -33.726562 8.125 -34.3125 C 9.476562 -34.90625 11.082031 -35.203125 12.9375 -35.203125 C 15.675781 -35.203125 17.71875 -34.726562 19.0625 -33.78125 L 17.609375 -29.203125 L 17.140625 -29.109375 C 16.210938 -29.765625 15.019531 -30.09375 13.5625 -30.09375 C 12.4375 -30.09375 11.59375 -29.816406 11.03125 -29.265625 C 10.476562 -28.722656 10.203125 -27.984375 10.203125 -27.046875 C 10.203125 -26.640625 10.226562 -26.265625 10.28125 -25.921875 C 10.332031 -25.585938 10.425781 -25.210938 10.5625 -24.796875 L 17.625 -24.796875 L 17.625 -19.859375 L 10.5625 -19.859375 L 10.5625 0 Z M 4.328125 0 "/></g></g></g><g fill="#8c52ff" fill-opacity="1"><g transform="translate(46.060983, 227.021615)"><g><path d="M 24.484375 -10.984375 L 8.5625 -10.984375 C 8.738281 -8.828125 9.347656 -7.257812 10.390625 -6.28125 C 11.441406 -5.300781 12.875 -4.8125 14.6875 -4.8125 C 16.113281 -4.8125 17.265625 -5.078125 18.140625 -5.609375 C 19.023438 -6.140625 19.738281 -6.941406 20.28125 -8.015625 L 20.75 -8.015625 L 24.890625 -5.375 C 24.078125 -3.632812 22.851562 -2.222656 21.21875 -1.140625 C 19.59375 -0.0664062 17.414062 0.46875 14.6875 0.46875 C 12.125 0.46875 9.910156 -0.015625 8.046875 -0.984375 C 6.179688 -1.960938 4.742188 -3.410156 3.734375 -5.328125 C 2.722656 -7.253906 2.21875 -9.601562 2.21875 -12.375 C 2.21875 -15.1875 2.75 -17.554688 3.8125 -19.484375 C 4.875 -21.421875 6.3125 -22.863281 8.125 -23.8125 C 9.9375 -24.769531 11.972656 -25.25 14.234375 -25.25 C 17.742188 -25.25 20.429688 -24.316406 22.296875 -22.453125 C 24.160156 -20.597656 25.09375 -17.875 25.09375 -14.28125 C 25.09375 -12.976562 25.046875 -11.96875 24.953125 -11.25 Z M 19.140625 -15 C 19.078125 -16.882812 18.632812 -18.257812 17.8125 -19.125 C 17 -19.988281 15.804688 -20.421875 14.234375 -20.421875 C 11.097656 -20.421875 9.25 -18.613281 8.6875 -15 Z M 19.140625 -15 "/></g></g></g><g fill="#8c52ff" fill-opacity="1"><g transform="translate(72.989364, 227.021615)"><g><path d="M 24.484375 -10.984375 L 8.5625 -10.984375 C 8.738281 -8.828125 9.347656 -7.257812 10.390625 -6.28125 C 11.441406 -5.300781 12.875 -4.8125 14.6875 -4.8125 C 16.113281 -4.8125 17.265625 -5.078125 18.140625 -5.609375 C 19.023438 -6.140625 19.738281 -6.941406 20.28125 -8.015625 L 20.75 -8.015625 L 24.890625 -5.375 C 24.078125 -3.632812 22.851562 -2.222656 21.21875 -1.140625 C 19.59375 -0.0664062 17.414062 0.46875 14.6875 0.46875 C 12.125 0.46875 9.910156 -0.015625 8.046875 -0.984375 C 6.179688 -1.960938 4.742188 -3.410156 3.734375 -5.328125 C 2.722656 -7.253906 2.21875 -9.601562 2.21875 -12.375 C 2.21875 -15.1875 2.75 -17.554688 3.8125 -19.484375 C 4.875 -21.421875 6.3125 -22.863281 8.125 -23.8125 C 9.9375 -24.769531 11.972656 -25.25 14.234375 -25.25 C 17.742188 -25.25 20.429688 -24.316406 22.296875 -22.453125 C 24.160156 -20.597656 25.09375 -17.875 25.09375 -14.28125 C 25.09375 -12.976562 25.046875 -11.96875 24.953125 -11.25 Z M 19.140625 -15 C 19.078125 -16.882812 18.632812 -18.257812 17.8125 -19.125 C 17 -19.988281 15.804688 -20.421875 14.234375 -20.421875 C 11.097656 -20.421875 9.25 -18.613281 8.6875 -15 Z M 19.140625 -15 "/></g></g></g><g fill="#8c52ff" fill-opacity="1"><g transform="translate(99.917744, 227.021615)"><g><path d="M 10.28125 0.46875 C 8.050781 0.46875 6.347656 -0.128906 5.171875 -1.328125 C 4.003906 -2.535156 3.421875 -4.367188 3.421875 -6.828125 L 3.421875 -34.71875 L 9.640625 -34.71875 L 9.640625 -7.078125 C 9.640625 -5.566406 10.265625 -4.8125 11.515625 -4.8125 C 11.878906 -4.8125 12.265625 -4.867188 12.671875 -4.984375 L 12.984375 -4.890625 L 13.546875 -0.109375 C 13.203125 0.0664062 12.742188 0.207031 12.171875 0.3125 C 11.609375 0.414062 10.976562 0.46875 10.28125 0.46875 Z M 10.28125 0.46875 "/></g></g></g><g fill="#8c52ff" fill-opacity="1"><g transform="translate(114.156769, 227.021615)"><g><path d="M 6.671875 -27.734375 C 5.546875 -27.734375 4.628906 -28.070312 3.921875 -28.75 C 3.222656 -29.4375 2.875 -30.320312 2.875 -31.40625 C 2.875 -32.46875 3.222656 -33.335938 3.921875 -34.015625 C 4.628906 -34.703125 5.546875 -35.046875 6.671875 -35.046875 C 7.421875 -35.046875 8.085938 -34.882812 8.671875 -34.5625 C 9.253906 -34.25 9.707031 -33.816406 10.03125 -33.265625 C 10.351562 -32.722656 10.515625 -32.101562 10.515625 -31.40625 C 10.515625 -30.695312 10.351562 -30.066406 10.03125 -29.515625 C 9.707031 -28.960938 9.253906 -28.523438 8.671875 -28.203125 C 8.085938 -27.890625 7.421875 -27.734375 6.671875 -27.734375 Z M 3.578125 0 L 3.578125 -24.78125 L 9.796875 -24.78125 L 9.796875 0 Z M 3.578125 0 "/></g></g></g><g fill="#8c52ff" fill-opacity="1"><g transform="translate(127.497432, 227.021615)"><g><path d="M 3.578125 0 L 3.578125 -24.78125 L 9.546875 -24.78125 L 9.546875 -21.140625 L 10.015625 -21.03125 C 11.554688 -23.84375 14.054688 -25.25 17.515625 -25.25 C 20.378906 -25.25 22.476562 -24.46875 23.8125 -22.90625 C 25.15625 -21.351562 25.828125 -19.085938 25.828125 -16.109375 L 25.828125 0 L 19.609375 0 L 19.609375 -15.34375 C 19.609375 -16.988281 19.273438 -18.171875 18.609375 -18.890625 C 17.953125 -19.617188 16.898438 -19.984375 15.453125 -19.984375 C 13.671875 -19.984375 12.28125 -19.40625 11.28125 -18.25 C 10.289062 -17.101562 9.796875 -15.296875 9.796875 -12.828125 L 9.796875 0 Z M 3.578125 0 "/></g></g></g><g fill="#8c52ff" fill-opacity="1"><g transform="translate(156.514497, 227.021615)"><g><path d="M 12.84375 10.515625 C 8.757812 10.515625 5.742188 9.914062 3.796875 8.71875 C 1.847656 7.519531 0.875 5.847656 0.875 3.703125 C 0.875 2.398438 1.289062 1.332031 2.125 0.5 C 2.957031 -0.320312 4.148438 -0.878906 5.703125 -1.171875 L 5.703125 -1.640625 C 4.867188 -2.148438 4.265625 -2.710938 3.890625 -3.328125 C 3.523438 -3.953125 3.34375 -4.675781 3.34375 -5.5 C 3.34375 -7.488281 4.640625 -8.832031 7.234375 -9.53125 L 7.234375 -10 C 5.898438 -10.757812 4.894531 -11.703125 4.21875 -12.828125 C 3.550781 -13.960938 3.21875 -15.332031 3.21875 -16.9375 C 3.21875 -18.582031 3.59375 -20.03125 4.34375 -21.28125 C 5.101562 -22.53125 6.210938 -23.503906 7.671875 -24.203125 C 9.128906 -24.898438 10.878906 -25.25 12.921875 -25.25 C 14.984375 -25.25 16.628906 -24.890625 17.859375 -24.171875 C 18.617188 -25.273438 19.0625 -26.554688 19.1875 -28.015625 L 19.65625 -28.296875 L 24.125 -27.203125 C 23.988281 -26.015625 23.644531 -25.019531 23.09375 -24.21875 C 22.539062 -23.414062 21.675781 -22.703125 20.5 -22.078125 L 20.5 -21.578125 C 21.894531 -20.359375 22.59375 -18.644531 22.59375 -16.4375 C 22.59375 -14.914062 22.210938 -13.546875 21.453125 -12.328125 C 20.691406 -11.117188 19.578125 -10.160156 18.109375 -9.453125 C 16.648438 -8.753906 14.921875 -8.40625 12.921875 -8.40625 L 11.96875 -8.421875 C 11.375 -8.453125 10.957031 -8.46875 10.71875 -8.46875 C 10.144531 -8.46875 9.695312 -8.3125 9.375 -8 C 9.050781 -7.695312 8.890625 -7.304688 8.890625 -6.828125 C 8.890625 -6.304688 9.097656 -5.898438 9.515625 -5.609375 C 9.941406 -5.316406 10.554688 -5.15625 11.359375 -5.125 L 16.90625 -4.921875 C 22.394531 -4.753906 25.140625 -2.394531 25.140625 2.15625 C 25.140625 3.757812 24.726562 5.1875 23.90625 6.4375 C 23.09375 7.6875 21.769531 8.675781 19.9375 9.40625 C 18.113281 10.144531 15.75 10.515625 12.84375 10.515625 Z M 12.921875 -12.765625 C 14.117188 -12.765625 15.050781 -13.113281 15.71875 -13.8125 C 16.394531 -14.519531 16.734375 -15.523438 16.734375 -16.828125 C 16.734375 -18.128906 16.394531 -19.125 15.71875 -19.8125 C 15.050781 -20.507812 14.117188 -20.859375 12.921875 -20.859375 C 11.703125 -20.859375 10.765625 -20.507812 10.109375 -19.8125 C 9.453125 -19.125 9.125 -18.128906 9.125 -16.828125 C 9.125 -15.503906 9.453125 -14.492188 10.109375 -13.796875 C 10.765625 -13.109375 11.703125 -12.765625 12.921875 -12.765625 Z M 12.84375 6 C 14.96875 6 16.515625 5.695312 17.484375 5.09375 C 18.453125 4.5 18.9375 3.722656 18.9375 2.765625 C 18.9375 1.984375 18.6875 1.410156 18.1875 1.046875 C 17.695312 0.679688 16.910156 0.484375 15.828125 0.453125 L 10.9375 0.21875 C 10.769531 0.21875 10.613281 0.210938 10.46875 0.203125 C 10.332031 0.191406 10.195312 0.1875 10.0625 0.1875 C 9.007812 0.1875 8.207031 0.410156 7.65625 0.859375 C 7.113281 1.304688 6.84375 1.925781 6.84375 2.71875 C 6.84375 3.769531 7.34375 4.578125 8.34375 5.140625 C 9.351562 5.710938 10.851562 6 12.84375 6 Z M 12.84375 6 "/></g></g></g><g fill="#8c52ff" fill-opacity="1"><g transform="translate(182.275009, 227.021615)"><g/></g></g><g fill="#8c52ff" fill-opacity="1"><g transform="translate(193.122725, 227.021615)"><g><path d="M 17.09375 -5.90625 L 18.703125 -1.296875 C 18.035156 -0.742188 17.191406 -0.3125 16.171875 0 C 15.148438 0.3125 14 0.46875 12.71875 0.46875 C 10.03125 0.46875 7.988281 -0.257812 6.59375 -1.71875 C 5.207031 -3.175781 4.515625 -5.300781 4.515625 -8.09375 L 4.515625 -19.859375 L 0.734375 -19.859375 L 0.734375 -24.796875 L 4.515625 -24.796875 L 4.515625 -29.625 L 10.734375 -30.640625 L 10.734375 -24.796875 L 17.765625 -24.796875 L 17.765625 -19.859375 L 10.734375 -19.859375 L 10.734375 -8.53125 C 10.734375 -7.300781 10.988281 -6.40625 11.5 -5.84375 C 12.007812 -5.289062 12.75 -5.015625 13.71875 -5.015625 C 14.832031 -5.015625 15.800781 -5.3125 16.625 -5.90625 Z M 17.09375 -5.90625 "/></g></g></g><g fill="#8c52ff" fill-opacity="1"><g transform="translate(212.370119, 227.021615)"><g><path d="M 14.390625 0.46875 C 11.972656 0.46875 9.84375 -0.0234375 8 -1.015625 C 6.164062 -2.015625 4.742188 -3.472656 3.734375 -5.390625 C 2.722656 -7.316406 2.21875 -9.644531 2.21875 -12.375 C 2.21875 -15.101562 2.722656 -17.429688 3.734375 -19.359375 C 4.742188 -21.296875 6.164062 -22.757812 8 -23.75 C 9.84375 -24.75 11.972656 -25.25 14.390625 -25.25 C 16.816406 -25.25 18.945312 -24.75 20.78125 -23.75 C 22.625 -22.757812 24.050781 -21.296875 25.0625 -19.359375 C 26.082031 -17.429688 26.59375 -15.101562 26.59375 -12.375 C 26.59375 -9.644531 26.082031 -7.316406 25.0625 -5.390625 C 24.050781 -3.472656 22.625 -2.015625 20.78125 -1.015625 C 18.945312 -0.0234375 16.816406 0.46875 14.390625 0.46875 Z M 14.390625 -4.8125 C 18.242188 -4.8125 20.171875 -7.332031 20.171875 -12.375 C 20.171875 -15 19.675781 -16.921875 18.6875 -18.140625 C 17.695312 -19.359375 16.265625 -19.96875 14.390625 -19.96875 C 10.546875 -19.96875 8.625 -17.4375 8.625 -12.375 C 8.625 -7.332031 10.546875 -4.8125 14.390625 -4.8125 Z M 14.390625 -4.8125 "/></g></g></g><g fill="#8c52ff" fill-opacity="1"><g transform="translate(241.162594, 227.021615)"><g><path d="M 12.234375 0.46875 C 10.273438 0.46875 8.539062 -0.00390625 7.03125 -0.953125 C 5.53125 -1.898438 4.351562 -3.335938 3.5 -5.265625 C 2.644531 -7.191406 2.21875 -9.5625 2.21875 -12.375 C 2.21875 -15.207031 2.65625 -17.582031 3.53125 -19.5 C 4.414062 -21.425781 5.628906 -22.863281 7.171875 -23.8125 C 8.722656 -24.769531 10.519531 -25.25 12.5625 -25.25 C 14.101562 -25.25 15.4375 -24.984375 16.5625 -24.453125 C 17.695312 -23.921875 18.648438 -23.09375 19.421875 -21.96875 L 19.90625 -22.078125 L 19.90625 -34.71875 L 26.125 -34.71875 L 26.125 0 L 19.90625 0 L 19.90625 -3.21875 L 19.421875 -3.296875 C 18.734375 -2.128906 17.789062 -1.207031 16.59375 -0.53125 C 15.394531 0.132812 13.941406 0.46875 12.234375 0.46875 Z M 14.265625 -4.8125 C 16.015625 -4.8125 17.398438 -5.4375 18.421875 -6.6875 C 19.441406 -7.9375 19.953125 -9.832031 19.953125 -12.375 C 19.953125 -14.914062 19.441406 -16.816406 18.421875 -18.078125 C 17.398438 -19.335938 16.015625 -19.96875 14.265625 -19.96875 C 12.429688 -19.96875 11.03125 -19.359375 10.0625 -18.140625 C 9.101562 -16.921875 8.625 -15 8.625 -12.375 C 8.625 -9.769531 9.101562 -7.859375 10.0625 -6.640625 C 11.03125 -5.421875 12.429688 -4.8125 14.265625 -4.8125 Z M 14.265625 -4.8125 "/></g></g></g><g fill="#8c52ff" fill-opacity="1"><g transform="translate(270.853441, 227.021615)"><g><path d="M 9.65625 0.46875 C 8.070312 0.46875 6.695312 0.175781 5.53125 -0.40625 C 4.363281 -0.988281 3.460938 -1.84375 2.828125 -2.96875 C 2.203125 -4.101562 1.890625 -5.460938 1.890625 -7.046875 C 1.890625 -8.515625 2.203125 -9.742188 2.828125 -10.734375 C 3.460938 -11.734375 4.4375 -12.550781 5.75 -13.1875 C 7.070312 -13.832031 8.796875 -14.328125 10.921875 -14.671875 C 12.398438 -14.910156 13.523438 -15.171875 14.296875 -15.453125 C 15.066406 -15.734375 15.585938 -16.050781 15.859375 -16.40625 C 16.128906 -16.769531 16.265625 -17.234375 16.265625 -17.796875 C 16.265625 -18.585938 15.984375 -19.191406 15.421875 -19.609375 C 14.867188 -20.023438 13.953125 -20.234375 12.671875 -20.234375 C 11.296875 -20.234375 9.984375 -19.925781 8.734375 -19.3125 C 7.492188 -18.695312 6.414062 -17.890625 5.5 -16.890625 L 5.046875 -16.890625 L 2.453125 -20.828125 C 3.703125 -22.210938 5.234375 -23.296875 7.046875 -24.078125 C 8.859375 -24.859375 10.835938 -25.25 12.984375 -25.25 C 16.265625 -25.25 18.632812 -24.550781 20.09375 -23.15625 C 21.5625 -21.757812 22.296875 -19.785156 22.296875 -17.234375 L 22.296875 -6.46875 C 22.296875 -5.363281 22.785156 -4.8125 23.765625 -4.8125 C 24.140625 -4.8125 24.503906 -4.878906 24.859375 -5.015625 L 25.171875 -4.921875 L 25.625 -0.578125 C 25.28125 -0.359375 24.800781 -0.175781 24.1875 -0.03125 C 23.570312 0.113281 22.898438 0.1875 22.171875 0.1875 C 20.691406 0.1875 19.535156 -0.0976562 18.703125 -0.671875 C 17.867188 -1.242188 17.269531 -2.132812 16.90625 -3.34375 L 16.4375 -3.390625 C 15.226562 -0.816406 12.96875 0.46875 9.65625 0.46875 Z M 11.640625 -4.171875 C 13.078125 -4.171875 14.222656 -4.65625 15.078125 -5.625 C 15.941406 -6.59375 16.375 -7.9375 16.375 -9.65625 L 16.375 -12.171875 L 15.953125 -12.265625 C 15.578125 -11.960938 15.082031 -11.707031 14.46875 -11.5 C 13.863281 -11.300781 12.992188 -11.109375 11.859375 -10.921875 C 10.515625 -10.691406 9.546875 -10.300781 8.953125 -9.75 C 8.359375 -9.207031 8.0625 -8.4375 8.0625 -7.4375 C 8.0625 -6.375 8.375 -5.5625 9 -5 C 9.632812 -4.445312 10.515625 -4.171875 11.640625 -4.171875 Z M 11.640625 -4.171875 "/></g></g></g><g fill="#8c52ff" fill-opacity="1"><g transform="translate(296.973297, 227.021615)"><g><path d="M 5.484375 10.515625 C 4.421875 10.515625 3.457031 10.429688 2.59375 10.265625 C 1.726562 10.097656 1.03125 9.878906 0.5 9.609375 L 1.484375 4.578125 L 1.890625 4.453125 C 2.265625 4.640625 2.726562 4.789062 3.28125 4.90625 C 3.832031 5.03125 4.398438 5.09375 4.984375 5.09375 C 5.984375 5.09375 6.816406 4.960938 7.484375 4.703125 C 8.148438 4.441406 8.71875 4.007812 9.1875 3.40625 C 9.65625 2.800781 10.066406 1.957031 10.421875 0.875 L 0.546875 -24.78125 L 7.046875 -24.78125 L 13.203125 -7.546875 L 13.75 -7.546875 L 19.75 -24.78125 L 26.078125 -24.78125 L 16.125 1.546875 C 15.332031 3.671875 14.457031 5.378906 13.5 6.671875 C 12.550781 7.972656 11.429688 8.9375 10.140625 9.5625 C 8.847656 10.195312 7.296875 10.515625 5.484375 10.515625 Z M 5.484375 10.515625 "/></g></g></g><g fill="#8c52ff" fill-opacity="1"><g transform="translate(323.564787, 227.021615)"><g><path d="M 7.640625 -12.0625 C 7.640625 -13.125 7.726562 -14.007812 7.90625 -14.71875 C 8.082031 -15.4375 8.394531 -16.085938 8.84375 -16.671875 C 9.300781 -17.265625 9.945312 -17.898438 10.78125 -18.578125 L 12.734375 -20.171875 C 13.691406 -20.953125 14.367188 -21.660156 14.765625 -22.296875 C 15.160156 -22.941406 15.359375 -23.675781 15.359375 -24.5 C 15.359375 -25.507812 15.003906 -26.304688 14.296875 -26.890625 C 13.585938 -27.484375 12.550781 -27.78125 11.1875 -27.78125 C 9.820312 -27.78125 8.640625 -27.453125 7.640625 -26.796875 C 6.648438 -26.140625 5.773438 -25.203125 5.015625 -23.984375 L 4.5 -23.90625 L 0.8125 -27.890625 C 2.050781 -29.671875 3.546875 -31.019531 5.296875 -31.9375 C 7.046875 -32.851562 9.132812 -33.3125 11.5625 -33.3125 C 13.851562 -33.3125 15.773438 -32.960938 17.328125 -32.265625 C 18.878906 -31.566406 20.03125 -30.601562 20.78125 -29.375 C 21.53125 -28.144531 21.90625 -26.742188 21.90625 -25.171875 C 21.90625 -23.453125 21.546875 -21.972656 20.828125 -20.734375 C 20.117188 -19.503906 19.03125 -18.304688 17.5625 -17.140625 L 15.390625 -15.40625 C 14.566406 -14.757812 14.015625 -14.175781 13.734375 -13.65625 C 13.453125 -13.144531 13.3125 -12.460938 13.3125 -11.609375 L 13.3125 -10.890625 L 7.640625 -10.890625 Z M 10.484375 0.21875 C 9.710938 0.21875 9.03125 0.0625 8.4375 -0.25 C 7.84375 -0.5625 7.382812 -0.992188 7.0625 -1.546875 C 6.738281 -2.097656 6.578125 -2.722656 6.578125 -3.421875 C 6.578125 -4.117188 6.738281 -4.75 7.0625 -5.3125 C 7.382812 -5.875 7.84375 -6.3125 8.4375 -6.625 C 9.03125 -6.9375 9.710938 -7.09375 10.484375 -7.09375 C 11.648438 -7.09375 12.585938 -6.75 13.296875 -6.0625 C 14.015625 -5.375 14.375 -4.5 14.375 -3.4375 C 14.375 -2.375 14.015625 -1.5 13.296875 -0.8125 C 12.585938 -0.125 11.648438 0.21875 10.484375 0.21875 Z M 10.484375 0.21875 "/></g></g></g></svg>